<?xml version="1.0" encoding="utf-8"?><svg viewBox="0 0 24 24" xmlns="http://www.w3.org/2000/svg" xmlns:xlink="http://www.w3.org/1999/xlink"><style>:root>svg{display:none}:root>svg:target{display:block}</style><svg viewBox="0 0 24 20" id="chest" xmlns="http://www.w3.org/2000/svg"><g clip-path="url(#aclip0_2_1740)"><path d="M.703 8.194H0v6.17a5.408 5.408 0 012.531.811V8.194H.703zM19.562.547H4.438A4.443 4.443 0 000 4.985v1.803H9.152V5.483h5.696v1.305H24V4.985A4.443 4.443 0 0019.562.547zM14.848 8.194v.78c0 .255-.035.502-.098.738h5.313V8.194h-5.215zM23.297 8.194h-1.828v6.981A5.407 5.407 0 0124 14.363v-6.17h-.703zM13.87 11.118a2.835 2.835 0 01-3.74 0H3.937v5.318a5.417 5.417 0 011.153 3.017h13.82a5.416 5.416 0 011.152-3.017v-5.318H13.87zM20.32 19.453H24v-3.679a4.044 4.044 0 00-3.68 3.68zM0 15.774v3.68h3.68A4.044 4.044 0 000 15.773zM9.152 8.973v-.78H3.938v1.519H9.25a2.841 2.841 0 01-.098-.739zM10.559 6.89v2.083c0 .795.646 1.442 1.441 1.442s1.441-.647 1.441-1.442V6.89H10.56z"/></g><defs><clipPath id="aclip0_2_1740"><path d="M0 0h24v20H0z"/></clipPath></defs></svg><svg viewBox="0 0 11 11" id="clock" xmlns="http://www.w3.org/2000/svg"><path d="M5.5 0A5.506 5.506 0 000 5.5C0 8.533 2.467 11 5.5 11S11 8.533 11 5.5 8.533 0 5.5 0zm2.616 8.345a.457.457 0 01-.648 0L5.176 6.053a.456.456 0 01-.134-.324V2.75a.458.458 0 11.916 0v2.79l2.158 2.157a.458.458 0 010 .648z"/></svg><svg viewBox="0 0 24 24" id="close" xmlns="http://www.w3.org/2000/svg"><path d="M23.361 21.15l-9.302-9.29 9.303-9.184.317-.317c.317-.422.422-.95.211-1.372-.211-.422-.529-.845-1.057-.95-.529-.106-1.057 0-1.586.528l-9.302 9.29-6.66-6.651L2.643.564C2.22.038 1.69-.068 1.163.038.634.142.21.565 0 1.092v.74c.106.422.423.738.74 1.055l9.09 9.079-9.09 9.078c-.317.317-.634.634-.74 1.056v.633c.211.634.529 1.056 1.163 1.267h.634c.423-.106.74-.422 1.057-.633l9.091-9.079 9.09 9.079c.318.316.53.527.952.633h.635l.21-.106c.53-.21.952-.738.952-1.372.106-.633-.105-.95-.422-1.372z"/></svg><svg viewBox="0 0 24 24" id="hunter" xmlns="http://www.w3.org/2000/svg"><g clip-path="url(#dclip0_2_1580)"><path d="M9.362 11.172H7.707a.414.414 0 00-.414.414V12h2.483v-.414a.414.414 0 00-.414-.414zM13.914 7.448h-.828v2.897c0 1.304-.555 2.48-1.437 3.31h2.265V7.448zM6.294 18.376l1.495-.997-1.804-1.202-.293.089.602 2.11zM12.624 14.482H11.43v.93l.637.182.556-1.111z"/><path d="M12.259 7.448H4.81v2.897a3.728 3.728 0 003.724 3.724 3.728 3.728 0 003.724-3.724V7.448zM6.052 8.69a.414.414 0 11.828 0 .414.414 0 01-.828 0zm4.552 4.137H6.466v-1.241c0-.684.557-1.241 1.241-1.241h1.655c.685 0 1.242.557 1.242 1.241v1.241zm0-3.724a.414.414 0 110-.828.414.414 0 010 .828zM15.527.414h-.372c-.999 0-1.835.712-2.027 1.655h.372c1 0 1.835-.712 2.027-1.655zM14.742 4.552h-.385L2.328 5.754v.867h12.415V4.55zM11.017 3.31c0-.684.558-1.241 1.242-1.241.01 0 .021.003.032.003l.004-.02A4.139 4.139 0 008.725 0a4.126 4.126 0 00-3.849 2.606 10.77 10.77 0 01-1.186 2.18l7.562-.754a1.23 1.23 0 01-.235-.722zM12.673 3.31a.414.414 0 11-.828 0 .414.414 0 01.828 0zM9.28 17.379l1.495.997.605-2.118-.292-.084L9.28 17.38zM13.914 14.482h-.365l-.671 1.343.642.184.101-.371 2.45.612-.147.588c.356.234.652.537.87.89l1.186-2.373-3.27-1.486a.826.826 0 01-.796.614zM15.694 17.7a14.408 14.408 0 01-1.78 3.978V24h2.483v-4.748c0-.607-.262-1.165-.703-1.551zM13.086 24v-1.17A14.49 14.49 0 0112.06 24h1.027z"/><path d="M15.067 16.853l-.86-.216-.049.178a14.433 14.433 0 01-4.277 6.943L9.613 24h1.24a13.56 13.56 0 004.14-6.85l.074-.297zM2.14 17.344a2.057 2.057 0 00-1.467 1.98V24h2.482v-3.15c0-1.243-.204-2.461-.606-3.63l-.409.124z"/><path d="M13.295 16.805l-1.119-.32-.917 3.208-2.31-1.54v5.331l.378-.34a13.599 13.599 0 003.968-6.339zM4.899 16.506l-1.559.474c.426 1.246.643 2.544.643 3.869v3.15H8.12v-5.847l-2.311 1.54-.911-3.186zM3.983 10.345V7.448h-.828v6.207h2.266a4.534 4.534 0 01-1.438-3.31zM10.604 14.394a4.517 4.517 0 01-4.138 0v1.108l2.069 1.38 2.069-1.38v-1.108zM21.363 8.621l-.881-1.783-1.507 2.61.454 1.696-1.294 2.241-2.54-1.172 1.488-2.577 1.696-.455 1.507-2.61L18.3 6.7l-.882-1.783-1.507 2.61.455 1.695-1.527 2.643-.098-.046v1.156l3.946 1.793.458-.916-.256-.119 1.256-2.176 1.696-.454 1.507-2.61-1.986.128z"/></g><defs><clipPath id="dclip0_2_1580"><path d="M0 0h24v24H0z"/></clipPath></defs></svg><svg viewBox="0 0 22 22" id="language" xmlns="http://www.w3.org/2000/svg"><path d="M11 .5C5.21.5.5 5.18.5 11c0 5.803 4.696 10.5 10.5 10.5 5.813 0 10.5-4.706 10.5-10.5C21.5 5.185 16.792.5 11 .5zM9.79 2.968C8.627 3.722 7.815 4.3 7.635 4.942 7.32 6.064 9.317 6.88 9.87 7.372c1.004.89.543 3.098-.508 4.082-1.05.984-1.44 1.982-1.324 2.732.15.98 1.26 2.538 1.856 3.504.595.967-.04 1.185-.87.692-.616-.367-3.457-1.06-4.32-1.687-.863-.627-1.134-2.776-.86-3.67.272-.893.593-3.273-.769-4.06a2.536 2.536 0 01-.808-.715c1.21-3.832 4.866-6.565 9.103-6.396-.597.438-1.184.855-1.582 1.114zm8.974 9.737c-1.169-.122-2.526-.308-2.782-.448-1.07-.588-.718-1.391-.275-2.558.444-1.167-1.783-2.188-1.783-3.59 0-1.37.877-2.28 1.916-2.876A9.156 9.156 0 0120.154 11a9.1 9.1 0 01-.772 3.677c-.047-.988.05-1.902-.619-1.972z" fill-opacity=".5"/></svg><svg viewBox="0 0 12 14" id="location" xmlns="http://www.w3.org/2000/svg"><path d="M6.053 14c.959-1.074 5.297-6.083 5.297-8.703a5.297 5.297 0 10-10.593 0c0 2.62 4.338 7.629 5.296 8.703zm0-10.973a2.27 2.27 0 110 4.54 2.27 2.27 0 010-4.54z"/></svg><svg viewBox="0 0 8 14" id="phone" xmlns="http://www.w3.org/2000/svg"><path d="M6.336.346H1.664A1.659 1.659 0 000 2.01v9.98c0 .923.756 1.664 1.664 1.664h4.672A1.659 1.659 0 008 11.99V2.01A1.659 1.659 0 006.336.346zM4.008 12.58a.749.749 0 01-.756-.756c0-.424.332-.756.756-.756.423 0 .756.332.756.756a.749.749 0 01-.756.756zm3.236-2.314H.756V2.57h6.488v7.697z"/></svg><svg viewBox="0 0 20 20" id="search" xmlns="http://www.w3.org/2000/svg"><path d="M19.767 18.59l-4.97-4.97a8.34 8.34 0 10-1.178 1.176l4.97 4.97a.833.833 0 001.178-1.177zM8.353 15.014a6.661 6.661 0 116.662-6.662 6.669 6.669 0 01-6.662 6.662z"/></svg><svg viewBox="0 0 24 22" id="telegram" xmlns="http://www.w3.org/2000/svg"><path d="M23.53.966A1.45 1.45 0 0022.098.66L.995 7.615c-.575.19-.965.703-.993 1.308a1.439 1.439 0 00.866 1.395l5.219 2.283 1.574 7.303c.066.304.22.574.546.657.33.084.563-.096.81-.28l3.872-2.9 4.528 3.704a1.44 1.44 0 001.382.251c.477-.161.83-.55.945-1.04l4.218-17.93a1.45 1.45 0 00-.432-1.4zM9.354 13.91a.177.177 0 00-.008.021l-.873 3.05-.974-4.518 6.7-3.722-4.685 4.897a.704.704 0 00-.16.272zm.277 4.15l.396-1.386.38-1.325 1.358 1.112-2.134 1.599zM22.589 2.043l-4.217 17.93c-.002.01-.005.021-.025.028-.02.007-.03 0-.038-.006l-4.954-4.055-2.296-1.878 7.375-7.711a.705.705 0 00-.852-1.103l-10.92 6.067-5.229-2.288c-.016-.007-.025-.011-.023-.038 0-.027.01-.03.027-.035l21.102-6.957c.01-.003.022-.007.039.009.017.015.014.027.011.037z"/></svg><svg viewBox="0 0 24 24" id="whatsapp" xmlns="http://www.w3.org/2000/svg"><path fill-rule="evenodd" clip-rule="evenodd" d="M20.13 3.27A11.077 11.077 0 0012.243 0C6.098 0 1.096 5.001 1.093 11.149c0 1.965.513 3.883 1.489 5.574L1 22.5l5.91-1.55a11.137 11.137 0 005.328 1.357h.005c6.145 0 11.147-5.002 11.15-11.15A11.08 11.08 0 0020.13 3.27zm-7.887 17.154h-.004a9.256 9.256 0 01-4.716-1.292l-.339-.201-3.507.92.936-3.42-.22-.35a9.244 9.244 0 01-1.417-4.932c.002-5.11 4.16-9.266 9.27-9.266 2.476 0 4.803.966 6.552 2.718a9.212 9.212 0 012.712 6.556c-.002 5.11-4.16 9.267-9.267 9.267zm5.083-6.94c-.278-.14-1.648-.814-1.904-.907-.255-.093-.44-.14-.626.14-.186.278-.72.906-.882 1.091-.163.187-.325.21-.604.07-.279-.14-1.176-.433-2.24-1.383-.829-.738-1.388-1.65-1.55-1.93-.162-.278-.002-.415.122-.568.302-.374.604-.767.697-.953.092-.186.046-.348-.024-.488s-.626-1.51-.859-2.068c-.226-.543-.455-.47-.627-.479-.162-.008-.348-.01-.533-.01-.186 0-.488.07-.743.35-.256.278-.975.952-.975 2.323 0 1.372.998 2.696 1.137 2.882.14.186 1.965 3 4.76 4.207.664.287 1.183.458 1.587.587.668.212 1.275.182 1.755.11.535-.08 1.648-.674 1.88-1.325.233-.65.233-1.208.163-1.324-.07-.117-.255-.186-.534-.326z"/></svg><svg viewBox="0 0 22 21" id="wishlist" xmlns="http://www.w3.org/2000/svg"><path d="M16.04.8A5.865 5.865 0 0011 3.824 5.864 5.864 0 005.96.8 6.23 6.23 0 00.004 7.26c0 4.166 4.386 8.717 8.064 11.802a4.558 4.558 0 005.864 0c3.678-3.085 8.063-7.636 8.063-11.802A6.23 6.23 0 0016.04.8z"/></svg></svg>