<svg width="24" height="20" viewBox="0 0 24 20" fill="none" xmlns="http://www.w3.org/2000/svg">
<g clip-path="url(#clip0_2_1740)">
<path d="M0.703125 8.19391H0V14.3633C0.924844 14.4212 1.78777 14.7109 2.53125 15.1751V8.19391H0.703125Z" fill="#343A3F"/>
<path d="M19.5619 0.546722H4.43813C1.99092 0.546722 0 2.53764 0 4.98485V6.78766H0.703125H3.9375H9.15244V5.48299H14.8476V6.78766H20.0625H23.2969H24V4.98485C24 2.53764 22.0091 0.546722 19.5619 0.546722Z" fill="#343A3F"/>
<path d="M14.8476 8.19391V8.97335C14.8476 9.22863 14.8133 9.47594 14.75 9.71153H20.0625V8.19391H14.8476Z" fill="#343A3F"/>
<path d="M23.2969 8.19391H21.4688V15.1751C22.2122 14.7109 23.0752 14.4212 24 14.3633V8.19391H23.2969Z" fill="#343A3F"/>
<path d="M13.8704 11.1178C13.3696 11.5551 12.7155 11.8209 12 11.8209C11.2845 11.8209 10.6304 11.5551 10.1296 11.1178H3.9375V16.4364C4.59966 17.2781 5.01895 18.3193 5.08992 19.4533H18.9101C18.981 18.3192 19.4003 17.2781 20.0625 16.4364V11.1178H13.8704Z" fill="#343A3F"/>
<path d="M20.3208 19.4533H24V15.7741C22.047 15.9395 20.4863 17.5002 20.3208 19.4533Z" fill="#343A3F"/>
<path d="M0 15.7741V19.4533H3.67922C3.51375 17.5002 1.95305 15.9395 0 15.7741Z" fill="#343A3F"/>
<path d="M9.15244 8.97335V8.19391H3.9375V9.71153H9.25003C9.18675 9.47594 9.15244 9.22863 9.15244 8.97335Z" fill="#343A3F"/>
<path d="M10.5587 6.88928V8.97339C10.5587 9.76811 11.2053 10.4147 12 10.4147C12.7947 10.4147 13.4413 9.76816 13.4413 8.97339V6.88928H10.5587Z" fill="#343A3F"/>
</g>
<defs>
<clipPath id="clip0_2_1740">
<rect width="24" height="20" fill="white"/>
</clipPath>
</defs>
</svg>
