<svg width="16" height="20" viewBox="0 0 16 20" fill="none" xmlns="http://www.w3.org/2000/svg">
<g clip-path="url(#clip0_1_2376)">
<path d="M15.4686 6.63066C15.3763 6.41539 15.1645 6.27586 14.9302 6.27586H10.8575L13.5715 0.847979C13.6623 0.666414 13.6526 0.45063 13.5459 0.277894C13.4391 0.105118 13.2504 0 13.0473 0L4.88836 0.000468755C4.64879 0.000468755 4.43336 0.14633 4.34437 0.368793L0.578701 9.78222C0.506473 9.96273 0.528505 10.1673 0.63753 10.3283C0.746515 10.4893 0.928275 10.5858 1.12273 10.5858H5.90583L2.46157 19.1964C2.3572 19.4573 2.45271 19.7556 2.68935 19.9073C2.7865 19.9696 2.89631 20 3.00537 20C3.16162 20 3.31643 19.9376 3.43041 19.8176L15.355 7.26532C15.5163 7.09551 15.561 6.8459 15.4686 6.63066Z" fill="#4888FF" />
<path d="M15.4686 6.63066C15.3763 6.41539 15.1645 6.27586 14.9303 6.27586H10.8575L13.5715 0.847979C13.6623 0.666414 13.6526 0.45063 13.5459 0.277894C13.4391 0.105118 13.2504 0 13.0473 0L8.02646 0.000273441V14.9797L15.3549 7.26544C15.5163 7.09551 15.561 6.8459 15.4686 6.63066Z" fill="#4888FF" />
</g>
<defs>
<clipPath id="clip0_1_2376">
<rect width="16" height="20" fill="white" transform="translate(0.00378418)"/>
</clipPath>
</defs>
</svg>
